<?xml version="1.0" standalone="no"?><!DOCTYPE svg PUBLIC "-//W3C//DTD SVG 1.1//EN" "http://www.w3.org/Graphics/SVG/1.1/DTD/svg11.dtd"><svg t="1601189248074" class="icon" viewBox="0 0 1024 1024" version="1.1" xmlns="http://www.w3.org/2000/svg" p-id="42944" xmlns:xlink="http://www.w3.org/1999/xlink" width="32" height="32"><defs><style type="text/css"></style></defs><path d="M800 864L287.99999999999983 863.9999999999997c-11.2-9.769962616701378e-15-21.59999999999999-5.888000000000017-27.391999999999985-15.424000000000015-5.791999999999996-9.6-6.143999999999989-21.536000000000005-0.9279999999999777-31.424l10.272000000000004-19.455999999999992C294.5600000000002 751.2 320 703.136 319.99999999999994 679.6159999999999c5.329070518200751e-15-8.608 9.769962616701378e-15-12.512-14.527999999999992-12.51200000000001-13.599999999999998-9.769962616701378e-15-27.104 5.375999999999987-30.975999999999992 8.159999999999975-17.088000000000008 12.064-41.75999999999999 19.007999999999996-67.71200000000005 19.007999999999964-26.431999999999995-1.9539925233402755e-14-50.01599999999999-7.07200000000006-66.496-19.904000000000032C110.49599999999998 651.0719999999997 96 602.944 96 527.2319999999997c5.684341886080802e-14-90.464 51.20000000000005-122.65599999999992 99.10400000000006-122.65599999999992 16.96 1.0658141036401503e-14 35.072 4.032000000000018 52.352000000000004 11.712000000000035 40.06399999999998 17.760000000000026 56.44800000000001 17.120000000000044 61.43999999999999 16.384000000000032 0.03199999999999992-0.44800000000000006 0.0640000000000005-0.96 0.06400000000000128-1.568 0.48000000000003595-60.928-20.38399999999986-202.52799999999996-20.608000000000004-203.93599999999998-1.5039999999999925-10.304000000000002 2.0480000000000214-20.671999999999997 9.600000000000016-27.871999999999993C304.8320000000004 192.73599999999965 344.4479999999999 160.00000000000006 448.0000000000002 160c48.8 3.907985046680551e-14 73.11999999999998 19.840000000000018 84.89599999999993 36.44800000000005 13.760000000000005 19.359999999999992 17.215999999999973 44.44799999999999 9.311999999999962 67.072-18.848000000000035 53.88799999999998-21.056000000000083 95.10400000000001-6.1440000000000765 116.096 11.359999999999987 16.032000000000018 35.58399999999996 24.160000000000032 71.93599999999998 24.16000000000006 10.399999999999999 9.769962616701378e-15 32.60799999999999-9.727999999999975 49.31199999999999-31.392000000000017 15.328000000000005-19.839999999999996 30.464000000000034-55.26399999999998 15.744000000000078-111.328-5.2799999999999905-20.096000000000004-0.9279999999999724-40.544 12.224000000000032-57.60000000000002C706.5919999999999 175.84000000000015 748.4160000000002 160.00000000000023 800.0000000000002 160.00000000000023c29.631999999999998 1.9539925233402755e-14 79.19999999999999 5.684341886080802e-14 119.39199999999997 49.31200000000006 4.639999999999999 5.695999999999999 7.167999999999994 12.800000000000004 7.199999999999988 20.128L927.9999999999998 740.4800000000002C928 808.6400000000001 870.592 864 800 864zM341.024 800L799.9999999999999 800c34.688 2.4868995751603507e-14 64.00000000000001-27.231999999999957 64.00000000000006-59.423999999999936L862.624 241.98399999999998C843.6480000000003 224.00000000000028 823.2320000000002 224.0000000000001 800 224.00000000000017c-45.28-3.907985046680551e-14-64.352 16.25599999999996-65.11999999999998 20.415999999999954 16.703999999999954 63.80800000000001 7.135999999999925 122.976-26.912000000000063 167.10399999999998-26.368000000000023 34.207999999999984-65.63200000000005 56.31999999999995-99.96800000000005 56.31999999999995-58.27199999999999 7.105427357601002e-15-100.064-17.216000000000093-124.12799999999996-51.136000000000074-27.999999999999964-39.48800000000003-28.703999999999937-98.144-2.0479999999998597-174.30399999999997 0.28800000000000026-0.8319999999999994 1.600000000000002-5.1199999999999966-1.0879999999999947-8.896C479.1360000000004 231.26400000000007 472.0960000000001 223.9999999999999 448.0000000000001 223.9999999999999c-48.83199999999998-3.552713678800501e-14-78.07999999999998 8.575999999999944-93.31199999999998 15.103999999999914 6.01599999999997 43.295999999999985 18.65599999999992 141.088 18.23999999999998 192.512-0.28800000000003223 39.647999999999996-26.97600000000003 65.312-68.00000000000006 65.31199999999994-22.592-1.4210854715202004e-14-49.88799999999998-7.232000000000028-83.45599999999999-22.112-9.183999999999994-4.064000000000004-18.304-6.208000000000013-26.39999999999999-6.208000000000029C171.808 468.57600000000025 160 488.28799999999967 160 527.2319999999997c-5.684341886080802e-14 79.00799999999998 17.69599999999992 95.136 19.711999999999996 96.70399999999998 4.031999999999995 3.168000000000004 13.983999999999996 6.336000000000006 27.071999999999992 6.3360000000000145 14.143999999999998 9.769962616701378e-15 25.631999999999998-3.615999999999975 30.719999999999985-7.263999999999976 16.800000000000004-11.903999999999986 44.128-19.90400000000002 67.96800000000002-19.903999999999968 47.67999999999998 3.552713678800501e-14 78.52799999999996 30.01600000000004 78.52799999999995 76.51200000000006C384.0000000000001 712.672 365.2799999999998 753.3759999999999 341.024 800z" fill="#5297ff" p-id="42945"></path></svg>