<?xml version="1.0" standalone="no"?><!DOCTYPE svg PUBLIC "-//W3C//DTD SVG 1.1//EN" "http://www.w3.org/Graphics/SVG/1.1/DTD/svg11.dtd"><svg t="1601188399873" class="icon" viewBox="0 0 1024 1024" version="1.1" xmlns="http://www.w3.org/2000/svg" p-id="17057" xmlns:xlink="http://www.w3.org/1999/xlink" width="48" height="48"><defs><style type="text/css"></style></defs><path d="M940.8 242.688L530.56 4.8c-11.2-6.4-25.6-6.4-36.736 0l-410.24 237.888c-11.2 6.4-19.2 19.136-19.2 31.872V748.8c0 12.8 6.4 25.536 19.2 31.936l410.24 236.288c11.2 6.4 25.6 6.4 36.736 0l410.24-236.288c11.2-6.4 19.2-19.2 19.2-32V274.56c0-14.336-8-25.536-19.2-31.872z m-44.672 490.048l-383.104 220.352-383.168-220.352V288.96l383.168-220.288 383.104 221.888v442.24z" fill="#1890FF" p-id="17058"></path><path d="M279.936 340.032a30.976 30.976 0 0 0-43.136 11.2c-7.936 14.336-3.2 35.136 11.2 43.072l233.088 135.68v268.224a32 32 0 0 0 31.936 31.936 32 32 0 0 0 31.872-31.936V528.448l233.088-134.144c16-9.6 20.8-28.736 11.2-43.072-9.6-16-28.736-20.8-43.136-11.2L513.024 474.112 279.936 340.032z" fill="#1890FF" p-id="17059"></path></svg>