<?xml version="1.0" standalone="no"?><!DOCTYPE svg PUBLIC "-//W3C//DTD SVG 1.1//EN" "http://www.w3.org/Graphics/SVG/1.1/DTD/svg11.dtd"><svg t="1601189322452" class="icon" viewBox="0 0 1024 1024" version="1.1" xmlns="http://www.w3.org/2000/svg" p-id="46274" xmlns:xlink="http://www.w3.org/1999/xlink" width="32" height="32"><defs><style type="text/css"></style></defs><path d="M483.883 483.758H184.58c-60.681 0-110.05-49.368-110.05-110.05V184.456c0-60.681 49.368-110.05 110.05-110.05h189.252c60.681 0 110.05 49.368 110.05 110.05v299.302zM184.58 114.424c-38.615 0-70.031 31.417-70.031 70.031v189.253c0 38.615 31.416 70.031 70.03 70.031h259.284V184.456c0-38.614-31.416-70.03-70.03-70.03H184.58zM840.875 483.758H539.62V184.456c0-60.681 49.367-110.05 110.05-110.05h191.206c60.681 0 110.05 49.368 110.05 110.05V373.71c0 60.681-49.369 110.049-110.05 110.049zM579.636 443.74h261.24c38.614 0 70.03-31.416 70.03-70.03V184.455c0-38.614-31.416-70.03-70.03-70.03H649.666c-38.615 0-70.03 31.416-70.03 70.03V443.74zM373.834 950.799H184.581c-60.681 0-110.05-49.368-110.05-110.05V649.542c0-60.681 49.368-110.05 110.05-110.05h299.302V840.75c0 60.681-49.368 110.05-110.049 110.05z m-189.253-371.29c-38.615 0-70.031 31.417-70.031 70.032v191.208c0 38.615 31.416 70.031 70.03 70.031h189.253c38.615 0 70.031-31.416 70.031-70.03V579.51H184.581zM840.875 950.799H649.667c-60.68 0-110.049-49.368-110.049-110.05V539.492h301.257c60.681 0 110.05 49.368 110.05 110.05V840.75c0 60.68-49.369 110.049-110.05 110.049z m-261.239-371.29v261.24c0 38.615 31.416 70.031 70.031 70.031h191.208c38.615 0 70.031-31.416 70.031-70.03V649.541c0-38.615-31.416-70.031-70.03-70.031h-261.24z" fill="#5297ff" p-id="46275"></path></svg>