<?xml version="1.0" standalone="no"?><!DOCTYPE svg PUBLIC "-//W3C//DTD SVG 1.1//EN" "http://www.w3.org/Graphics/SVG/1.1/DTD/svg11.dtd"><svg t="1601189019486" class="icon" viewBox="0 0 1024 1024" version="1.1" xmlns="http://www.w3.org/2000/svg" p-id="40509" xmlns:xlink="http://www.w3.org/1999/xlink" width="32" height="32"><defs><style type="text/css"></style></defs><path d="M121.1 142.2H344l53.6 83H840c30.6 0 55.3 24.7 55.3 55.3v497.6c0 30.6-24.7 55.3-55.3 55.3H121.1c-30.6 0-55.3-24.7-55.3-55.3V197.5c0.1-30.5 24.8-55.3 55.3-55.3z" fill="#3BA0F3" p-id="40510"></path><path d="M120.8 128h222.9l53.6 83h442.4c30.6 0 55.3 24.7 55.3 55.3v497.5c0 30.6-24.7 55.3-55.3 55.3H120.8c-30.6 0-55.3-24.7-55.3-55.3V183.2c0.1-30.5 24.8-55.2 55.3-55.2z" fill="#92CEFF" p-id="40511"></path><path d="M292.6 423.5h62.7v-31.4h-62.7v31.4z m125.5-31.4v31.4h251v-31.4h-251zM292.6 549h62.7v-31.4h-62.7V549z m125.5 0h251v-31.4h-251V549zM292.6 674.5h62.7v-31.4h-62.7v31.4z m125.5 0h251v-31.4h-251v31.4z" fill="#3BA0F3" p-id="40512"></path><path d="M743.9 681.3m-214.7 0a214.7 214.7 0 1 0 429.4 0 214.7 214.7 0 1 0-429.4 0Z" fill="#3BA0F3" p-id="40513"></path><path d="M675.4 572.3v16.4H853v165.9h14.4V572.3z" fill="#FFFFFF" p-id="40514"></path><path d="M649.7 600v16.6h178.5v165.7h13.5V600z" fill="#FFFFFF" p-id="40515"></path><path d="M624.9 630.8v182.3h192V630.8h-192zM673 763c-4.1 0-7.5-3.4-7.5-7.5s3.4-7.5 7.5-7.5 7.5 3.4 7.5 7.5-3.4 7.5-7.5 7.5z m0-34.5c-4.1 0-7.5-3.4-7.5-7.5s3.4-7.5 7.5-7.5 7.5 3.4 7.5 7.5-3.4 7.5-7.5 7.5z m0-34.5c-4.1 0-7.5-3.4-7.5-7.5s3.4-7.5 7.5-7.5 7.5 3.4 7.5 7.5-3.4 7.5-7.5 7.5z m97.5 69h-67c-4.1 0-7.5-3.4-7.5-7.5s3.4-7.5 7.5-7.5h67c4.1 0 7.5 3.4 7.5 7.5s-3.4 7.5-7.5 7.5z m0-34.5h-67c-4.1 0-7.5-3.4-7.5-7.5s3.4-7.5 7.5-7.5h67c4.1 0 7.5 3.4 7.5 7.5s-3.4 7.5-7.5 7.5z m0-34.5h-67c-4.1 0-7.5-3.4-7.5-7.5s3.4-7.5 7.5-7.5h67c4.1 0 7.5 3.4 7.5 7.5s-3.4 7.5-7.5 7.5z" fill="#FFFFFF" p-id="40516"></path></svg>