<?xml version="1.0" standalone="no"?><!DOCTYPE svg PUBLIC "-//W3C//DTD SVG 1.1//EN" "http://www.w3.org/Graphics/SVG/1.1/DTD/svg11.dtd"><svg t="1601188925604" class="icon" viewBox="0 0 1024 1024" version="1.1" xmlns="http://www.w3.org/2000/svg" p-id="30510" width="32" height="32" xmlns:xlink="http://www.w3.org/1999/xlink"><defs><style type="text/css"></style></defs><path d="M803.7 57H206.3C141.6 57 89 109.1 89 173v664c0 64 52.6 116 117.3 116H825c52.9 0 96-42.3 96-94.4V173c0-63.9-52.6-116-117.3-116zM153 173c0-28.7 23.9-52 53.3-52h597.3c29.4 0 53.3 23.3 53.3 52v92H153v-92z m53.3 716c-29.4 0-53.3-23.3-53.3-52V329h221.7v560H206.3zM857 858.6c0 16.8-14.4 30.4-32 30.4H438.7V329H857v529.6z" fill="#3688FF" p-id="30511"></path></svg>