<?xml version="1.0" standalone="no"?><!DOCTYPE svg PUBLIC "-//W3C//DTD SVG 1.1//EN" "http://www.w3.org/Graphics/SVG/1.1/DTD/svg11.dtd"><svg t="1598339558171" class="icon" viewBox="0 0 2571 1024" version="1.1" xmlns="http://www.w3.org/2000/svg" p-id="20504" width="321.375" height="128" xmlns:xlink="http://www.w3.org/1999/xlink"><defs><style type="text/css"></style></defs><path d="M745.68353463 738.786795a137.397992 137.397992 0 0 1-51.524247 66.24546 137.397992 137.397992 0 0 1-90.780816 26.988891 279.703055 279.703055 0 0 1-68.698996-7.360606 68.698996 68.698996 0 0 1-36.803034-24.535356 63.791925 63.791925 0 0 1-24.535356-26.988891 161.933348 161.933348 0 0 1-14.721213-29.442427c-36.803034-103.048494-68.698996-188.922239-90.780816-255.1677L308.95420263 319.232212a885.726341 885.726341 0 0 1-39.256569-103.048494 404.833369 404.833369 0 0 0-17.174749-51.524247 188.922239 188.922239 0 0 0-9.814142-29.442427 76.059603 76.059603 0 0 1 4.907071-76.059602A161.933348 161.933348 0 0 1 304.04713163 7.633195a159.479812 159.479812 0 0 1 95.687887 0A112.862636 112.862636 0 0 1 458.61987263 73.878655l149.66567 461.264687c9.814142-36.803034 24.535356-78.513138 39.256569-122.676778l44.16364-127.58385A1187.511216 1187.511216 0 0 1 726.05524963 164.659471c14.721213-36.803034 24.535356-68.698996 31.895963-90.780816a76.059603 76.059603 0 0 1 49.070711-58.884854 132.490921 132.490921 0 0 1 88.327281-7.360606c36.803034 12.267678 61.338389 29.442427 68.698996 56.431318a100.594958 100.594958 0 0 1-7.360607 83.420209z" fill="#41B883" p-id="20505"></path><path d="M1361.52096263 677.448405a80.966674 80.966674 0 0 0 73.606067-51.524247 338.587909 338.587909 0 0 0 24.535356-147.212134v-149.66567a85.873745 85.873745 0 0 1 12.267678-44.16364 58.884854 58.884854 0 0 1 26.988891-29.442427 107.955565 107.955565 0 0 1 61.338389-14.721213 80.966674 80.966674 0 0 1 51.524247 14.721213 188.922239 188.922239 0 0 1 31.895963 29.442427 95.687887 95.687887 0 0 1 9.814142 44.16364 301.784875 301.784875 0 0 1 2.453536 83.42021c-2.453536 34.349498-2.453536 63.791925-2.453536 88.32728a456.357616 456.357616 0 0 1-24.535356 164.386884 252.714164 252.714164 0 0 1-68.698996 100.594958 203.643452 203.643452 0 0 1-90.780816 53.977783 436.729332 436.729332 0 0 1-115.316172 12.267677 377.844478 377.844478 0 0 1-105.502029-12.267677 242.900022 242.900022 0 0 1-93.234352-53.977783 309.145482 309.145482 0 0 1-63.791925-100.594958 505.428328 505.428328 0 0 1-29.442427-164.386884v-171.74749a83.420209 83.420209 0 0 1 17.174749-49.070711 78.513138 78.513138 0 0 1 29.442427-26.988891 100.594958 100.594958 0 0 1 51.524247-12.267678 107.955565 107.955565 0 0 1 61.33839 14.721213 51.524247 51.524247 0 0 1 26.988891 34.349498 85.873745 85.873745 0 0 1 12.267678 44.16364v144.758599a338.587909 338.587909 0 0 0 24.535355 147.212134 80.966674 80.966674 0 0 0 76.059603 51.524247zM2014.16142463 611.202945c-44.16364 0-66.24546 4.907071-66.24546 12.267678a63.791925 63.791925 0 0 0 29.442426 49.070711 132.490921 132.490921 0 0 0 80.966674 22.08182 188.922239 188.922239 0 0 0 83.42021-14.721213 139.851528 139.851528 0 0 0 44.16364-29.442427 125.130314 125.130314 0 0 1 76.059603-22.08182 68.698996 68.698996 0 0 1 39.256569 12.267678 39.256569 39.256569 0 0 1 22.08182 26.988891 53.977783 53.977783 0 0 1 2.453536 34.349498 80.966674 80.966674 0 0 1-12.267678 36.803034 277.24952 277.24952 0 0 1-115.316172 78.513138 463.718223 463.718223 0 0 1-152.119206 22.08182 412.193976 412.193976 0 0 1-107.955565-17.174749 353.309122 353.309122 0 0 1-95.687887-49.070711 184.015168 184.015168 0 0 1-68.698996-80.966674 262.528306 262.528306 0 0 1-26.988891-120.223243 345.948516 345.948516 0 0 1 26.988891-144.758599 255.167699 255.167699 0 0 1 68.698996-98.141423 208.550524 208.550524 0 0 1 93.234352-53.977782 345.948516 345.948516 0 0 1 110.4091-17.174749 426.915189 426.915189 0 0 1 110.409101 14.721213 279.703055 279.703055 0 0 1 95.687887 39.256569 284.610126 284.610126 0 0 1 68.698996 76.059603 169.293954 169.293954 0 0 1 19.628285 103.048494 117.769707 117.769707 0 0 1-31.895962 88.327281c-19.628285 22.08182-56.431318 31.895962-112.862637 31.895962zM1952.82303563 456.630204q-7.360607 22.08182 22.08182 22.08182h176.654561c12.267678 0 17.174749-2.453536 17.174749-9.814142a29.442427 29.442427 0 0 0-4.907071-17.174749 142.305063 142.305063 0 0 0-34.349498-34.349498 107.955565 107.955565 0 0 0-71.152532-22.08182 120.223243 120.223243 0 0 0-73.606067 22.08182 100.594958 100.594958 0 0 0-31.895962 39.256569zM694.15928763 522.875664a110.409101 110.409101 0 0 1-36.803034 46.617176 93.234352 93.234352 0 0 1-63.791925 19.628285l-46.617175-4.907071a66.24546 66.24546 0 0 1-29.442427-17.174749l-17.174749-19.628285a71.152532 71.152532 0 0 0-9.814143-19.628284c-24.535356-73.606067-46.617176-134.944456-63.791924-184.015168s-31.895962-85.873745-41.710105-117.769708c-12.267678-31.895962-22.08182-56.431318-26.988891-73.606067l-12.267678-36.803033-7.360607-19.628285C331.03602263 76.332191 311.40773863 0.272588 335.94309363 0.272588a851.376843 851.376843 0 0 1 115.316172 4.907071 68.698996 68.698996 0 0 1 39.256569 49.070711l98.141423 299.33134c2.453536 7.360607 14.721213 7.360607 14.721214 0l22.08182-61.338389 29.442427-90.780816c9.814142-31.895962 17.174749-58.884854 26.988891-85.873745s14.721213-46.617176 19.628285-61.33839A61.338389 61.338389 0 0 1 738.32292763 10.08673 237.99295 237.99295 0 0 1 799.66131663 5.179659h76.059603c0 19.628285-2.453536 26.988891-31.895962 98.141423z" fill="#415870" p-id="20506"></path></svg>